<svg width="200" height="200" viewBox="0 0 200 200" fill="none" xmlns="http://www.w3.org/2000/svg">
<g opacity="0.1">
<path d="M183.333 40.4166V139.5C183.333 147.583 176.75 155 168.667 156L166.083 156.333C152.417 158.167 133.167 163.833 117.667 170.333C112.25 172.583 106.25 168.5 106.25 162.583V46.6666C106.25 43.5833 108 40.7499 110.75 39.2499C126 30.9999 149.083 23.6666 164.75 22.3333H165.25C175.25 22.3333 183.333 30.4166 183.333 40.4166Z" fill="#0B0A08"/>
<path d="M89.25 39.2499C74 30.9999 50.9167 23.6666 35.25 22.3333H34.6667C24.6667 22.3333 16.5834 30.4166 16.5834 40.4166V139.5C16.5834 147.583 23.1667 155 31.25 156L33.8334 156.333C47.5 158.167 66.75 163.833 82.25 170.333C87.6667 172.583 93.6667 168.5 93.6667 162.583V46.6666C93.6667 43.4999 92 40.7499 89.25 39.2499ZM41.6667 64.4999H60.4167C63.8334 64.4999 66.6667 67.3332 66.6667 70.7499C66.6667 74.2499 63.8334 76.9999 60.4167 76.9999H41.6667C38.25 76.9999 35.4167 74.2499 35.4167 70.7499C35.4167 67.3332 38.25 64.4999 41.6667 64.4999ZM66.6667 102H41.6667C38.25 102 35.4167 99.2499 35.4167 95.7499C35.4167 92.3332 38.25 89.4999 41.6667 89.4999H66.6667C70.0834 89.4999 72.9167 92.3332 72.9167 95.7499C72.9167 99.2499 70.0834 102 66.6667 102Z" fill="#0B0A08"/>
</g>
</svg>
