<svg width="32" height="32" viewBox="0 0 32 32" fill="none" xmlns="http://www.w3.org/2000/svg">
<path d="M16.0001 2.66626C8.64008 2.66626 2.66675 8.63959 2.66675 15.9996C2.66675 23.3596 8.64008 29.3329 16.0001 29.3329C23.3601 29.3329 29.3334 23.3596 29.3334 15.9996C29.3334 8.63959 23.3601 2.66626 16.0001 2.66626ZM21.3734 16.7063L17.3734 20.7063C17.1734 20.9063 16.9201 20.9996 16.6667 20.9996C16.4134 20.9996 16.1601 20.9063 15.9601 20.7063C15.5734 20.3196 15.5734 19.6796 15.9601 19.2929L18.2534 16.9996H11.3334C10.7867 16.9996 10.3334 16.5463 10.3334 15.9996C10.3334 15.4529 10.7867 14.9996 11.3334 14.9996H18.2534L15.9601 12.7063C15.5734 12.3196 15.5734 11.6796 15.9601 11.2929C16.3467 10.9063 16.9867 10.9063 17.3734 11.2929L21.3734 15.2929C21.7601 15.6796 21.7601 16.3196 21.3734 16.7063Z" fill="#0B0A08"/>
</svg>
