<svg width="150" height="60" viewBox="0 0 150 60" fill="none" xmlns="http://www.w3.org/2000/svg">
<g id="Asia start logo">
<path id="Vector" d="M78.6477 8.92548L78.7897 8.66652C78.8769 8.50539 78.875 8.34618 78.7841 8.18888L78.4602 7.63643L73.7897 1.43291C73.7632 1.39786 73.7463 1.35625 73.741 1.31239C73.7357 1.26853 73.742 1.22402 73.7594 1.1835C73.7768 1.14297 73.8046 1.1079 73.8399 1.08193C73.8752 1.05597 73.9168 1.04005 73.9602 1.03584C75.8807 0.840179 84.9034 7.50408 87.0454 8.91972C87.0718 8.93673 87.0933 8.96056 87.1076 8.98876C87.1219 9.01696 87.1285 9.04851 87.1268 9.08016C87.125 9.11181 87.115 9.14242 87.0977 9.16884C87.0804 9.19526 87.0565 9.21653 87.0284 9.23048L72.0625 16.4698C71.589 16.6962 71.5322 16.6156 71.892 16.2281L78.6477 8.92548Z" fill="#E30B0A"/>
<path id="Vector_2" d="M78.4601 7.63644L78.784 8.18889C78.8749 8.34618 78.8768 8.5054 78.7897 8.66653L78.6476 8.92549C59.1666 9.6007 44.5832 18.0927 34.8976 34.4014L31.9203 32.5944C38.6893 20.3869 48.6988 12.4262 61.9487 8.71256C62.3351 8.60131 62.3275 8.53225 61.926 8.5054C45.3294 7.43503 30.5851 17.7877 21.1419 30.845L15.301 32.2779C29.8465 9.36859 52.7215 2.53781 78.4601 7.63644Z" fill="#0B0A08"/>
<path id="Vector_3" d="M74.0113 31.2651C74.0511 30.5803 73.7499 28.7215 75.2386 29.5271C75.3522 29.5885 75.4109 29.6844 75.4147 29.8149L75.5056 34.5337C75.5056 34.7102 75.4204 34.8099 75.2499 34.8329L74.4658 34.9423C74.3985 34.9516 74.3299 34.9452 74.2655 34.9234C74.201 34.9017 74.1423 34.8652 74.094 34.8168C74.0456 34.7684 74.0089 34.7094 73.9867 34.6443C73.9645 34.5793 73.9574 34.5099 73.9658 34.4416L74.0965 33.3137C74.1192 33.1219 74.0378 33.0068 73.8522 32.9684C73.4923 32.8955 73.1382 32.9013 72.7897 32.9857C72.6084 33.0308 72.4186 33.0207 72.2442 32.9569C71.0473 32.5081 70.5397 31.6506 70.7215 30.3846C70.748 30.1966 70.8086 30.0201 70.9033 29.8552C71.1685 29.3794 71.4829 29.2317 71.8465 29.4121C72.017 29.4965 72.1098 29.6365 72.1249 29.8321L72.2215 31.2766C72.2408 31.5044 72.3442 31.7165 72.511 31.8706C72.6778 32.0247 72.8959 32.1094 73.1216 32.108C73.3474 32.1065 73.5644 32.019 73.7292 31.8627C73.8941 31.7065 73.9948 31.4931 74.0113 31.2651Z" fill="#9C1513"/>
<path id="Vector_4" d="M79.6649 30.6608C78.733 30.2925 76.7842 31.5183 76.8467 30.3271C76.8518 30.2507 76.8751 30.1768 76.9147 30.1116C76.9543 30.0465 77.009 29.992 77.0739 29.953C78.555 29.0591 79.8656 29.1474 81.0058 30.2177C81.2217 30.4211 81.3164 30.6724 81.2899 30.9716C81.1876 32.1686 81.2273 33.3559 81.4092 34.5337C81.4546 34.8253 81.3353 34.9481 81.0512 34.902C79.4944 34.6603 76.8467 35.4372 76.4433 33.4461C76.4016 33.2428 76.4452 33.0605 76.5739 32.8994C77.3088 31.994 78.288 31.5298 79.5114 31.5068C79.6123 31.5066 79.71 31.4707 79.7874 31.4053C79.8649 31.3398 79.9173 31.2489 79.9355 31.1484C79.9537 31.0479 79.9367 30.9441 79.8872 30.8551C79.8378 30.766 79.7591 30.6973 79.6649 30.6608ZM79.9245 32.902C79.9057 32.8218 79.8589 32.7492 79.7866 32.6883C79.7143 32.6274 79.6179 32.5795 79.503 32.5471C79.3881 32.5148 79.257 32.4987 79.117 32.4998C78.977 32.5009 78.8309 32.5192 78.6871 32.5537C78.5433 32.5881 78.4047 32.638 78.279 32.7005C78.1533 32.7629 78.0431 32.8368 77.9547 32.9178C77.8663 32.9988 77.8013 33.0855 77.7636 33.1727C77.7259 33.2599 77.7161 33.3461 77.7348 33.4262C77.7535 33.5064 77.8003 33.579 77.8726 33.6399C77.945 33.7008 78.0413 33.7488 78.1562 33.7811C78.2711 33.8135 78.4023 33.8296 78.5423 33.8284C78.6823 33.8273 78.8283 33.809 78.9721 33.7746C79.1159 33.7402 79.2546 33.6903 79.3803 33.6278C79.5059 33.5653 79.6161 33.4914 79.7046 33.4104C79.793 33.3294 79.8579 33.2428 79.8957 33.1556C79.9334 33.0683 79.9432 32.9822 79.9245 32.902Z" fill="#9C1513"/>
<path id="Vector_5" d="M90.7273 30.6724L90.8751 34.4704C90.8826 34.7275 90.7595 34.8618 90.5057 34.8733L89.7614 34.9136C89.4849 34.9251 89.3466 34.7908 89.3466 34.5107V30.8738C89.3466 30.6436 89.2349 30.5093 89.0114 30.471L87.9773 30.3041C87.8107 30.2772 87.7216 30.1794 87.7103 30.0106C87.6478 29.0093 92.7955 28.946 92.4319 30.0739C92.4055 30.156 92.3544 30.2276 92.286 30.2783C92.2176 30.3289 92.1354 30.3561 92.0512 30.3559H91.0285C90.9879 30.3558 90.9478 30.3641 90.9105 30.3801C90.8732 30.3962 90.8395 30.4197 90.8114 30.4492C90.7833 30.4788 90.7614 30.5138 90.7469 30.5521C90.7325 30.5905 90.7258 30.6314 90.7273 30.6724Z" fill="#9C1513"/>
<path id="Vector_6" d="M96.7899 30.9773C96.6952 30.4939 96.7691 30.024 97.0115 29.5674C97.1024 29.3986 97.2406 29.3219 97.4262 29.3372C97.6119 29.3526 97.788 29.4255 97.9547 29.5559C98.0872 29.6595 98.1535 29.7976 98.1535 29.9703V34.4474C98.1535 34.6814 98.038 34.8138 97.8069 34.8445L97.2558 34.9193C96.9679 34.9538 96.805 34.8272 96.7672 34.5395C96.6876 33.9448 96.7312 33.3617 96.8978 32.79C96.9121 32.7409 96.9149 32.689 96.9062 32.6386C96.8975 32.5882 96.8774 32.5407 96.8475 32.4998C96.8177 32.459 96.779 32.426 96.7344 32.4034C96.6899 32.3809 96.6408 32.3694 96.591 32.37H94.9206C94.8702 32.3695 94.8204 32.38 94.7744 32.4008C94.7284 32.4215 94.6873 32.452 94.6539 32.4902C94.6205 32.5283 94.5956 32.5733 94.5808 32.6221C94.5661 32.6708 94.5618 32.7222 94.5683 32.7728L94.7728 34.4416C94.8069 34.7255 94.6819 34.8636 94.3978 34.856L93.6876 34.8387C93.4452 34.831 93.324 34.7044 93.324 34.4589V29.9587C93.3239 29.8134 93.3755 29.6728 93.4694 29.5629C93.5634 29.453 93.6933 29.381 93.8353 29.3603C94.1384 29.3142 94.3922 29.3871 94.5967 29.5789C94.7406 29.7171 94.7937 29.8859 94.7558 30.0854L94.591 30.9601C94.538 31.2286 94.6478 31.3629 94.9206 31.3629H96.4831C96.7406 31.3629 96.8429 31.2344 96.7899 30.9773Z" fill="#9C1513"/>
<path id="Vector_7" d="M103.295 29.7689C103.438 29.831 103.561 29.9328 103.648 30.0622C103.736 30.1916 103.785 30.3434 103.79 30.4997L103.926 34.6316C103.934 34.8195 103.847 34.8944 103.665 34.856C102.318 34.5683 99.8069 35.3912 99.3239 33.7568C98.858 32.1973 101.159 31.6506 102.261 31.4607C102.504 31.4185 102.602 31.2728 102.557 31.0234C102.489 30.6359 102.201 30.4326 101.693 30.4134C101.53 30.4057 101.375 30.4364 101.227 30.5055C100.86 30.6704 100.475 30.8181 100.074 30.9486C99.9619 30.9818 99.8418 30.9733 99.7355 30.9246C99.6291 30.8759 99.5435 30.7903 99.494 30.6832C99.4446 30.5761 99.4346 30.4546 99.466 30.3408C99.4973 30.2269 99.5678 30.1281 99.6648 30.0624C100.839 29.3181 102.049 29.2203 103.295 29.7689ZM102.239 32.4045L100.58 32.8361C100.549 32.8435 100.52 32.857 100.495 32.8758C100.469 32.8946 100.447 32.9184 100.431 32.9456C100.415 32.9729 100.404 33.0032 100.399 33.0348C100.394 33.0664 100.396 33.0986 100.403 33.1296L100.438 33.2504C100.466 33.364 100.517 33.4708 100.586 33.5647C100.655 33.6585 100.741 33.7377 100.84 33.7975C100.938 33.8574 101.048 33.8968 101.161 33.9135C101.274 33.9303 101.389 33.9239 101.5 33.895L101.938 33.7799C102.048 33.7507 102.152 33.6995 102.243 33.629C102.334 33.5585 102.411 33.4702 102.468 33.3692C102.526 33.2681 102.563 33.1563 102.579 33.0402C102.594 32.924 102.586 32.8058 102.557 32.6922L102.528 32.5771C102.512 32.5155 102.473 32.4627 102.419 32.4304C102.364 32.398 102.3 32.3887 102.239 32.4045Z" fill="#9C1513"/>
<path id="Vector_8" d="M106.017 32.3872C105.445 32.1225 105.153 31.5547 105.142 30.6839C105.142 30.5029 105.189 30.3244 105.278 30.1659C105.49 29.7938 105.903 29.5617 106.517 29.4696C107.543 29.3123 108.568 29.2816 109.591 29.3776C109.826 29.4006 109.943 29.531 109.943 29.7689V34.6085C109.943 34.8502 109.822 34.9692 109.579 34.9653L108.886 34.9481C108.789 34.9451 108.696 34.9037 108.628 34.8328C108.561 34.7619 108.523 34.667 108.523 34.5683V33.1066C108.522 33.0019 108.488 32.8999 108.427 32.8153C108.366 32.7307 108.28 32.6679 108.182 32.6359C108.084 32.6039 107.979 32.6043 107.882 32.6372C107.785 32.6701 107.701 32.7337 107.642 32.8188C106.989 33.7338 106.415 35.2646 105.068 34.8272C105.019 34.8118 104.974 34.784 104.938 34.7464C104.902 34.7087 104.876 34.6625 104.862 34.612C104.849 34.5615 104.848 34.5083 104.86 34.4574C104.872 34.4065 104.897 34.3595 104.932 34.3208L106.131 32.9339C106.335 32.6999 106.297 32.5177 106.017 32.3872ZM108.686 30.9501C108.681 30.8611 108.647 30.7745 108.584 30.6953C108.521 30.6161 108.432 30.5459 108.32 30.4887C108.209 30.4315 108.078 30.3883 107.935 30.3617C107.792 30.3351 107.64 30.3256 107.488 30.3337C107.335 30.3419 107.184 30.3674 107.045 30.409C106.906 30.4506 106.78 30.5073 106.675 30.576C106.571 30.6447 106.489 30.724 106.435 30.8094C106.38 30.8948 106.355 30.9846 106.359 31.0736C106.364 31.1627 106.399 31.2493 106.461 31.3284C106.524 31.4076 106.614 31.4778 106.725 31.5351C106.836 31.5923 106.967 31.6354 107.11 31.662C107.253 31.6886 107.405 31.6981 107.558 31.69C107.71 31.6819 107.861 31.6563 108 31.6148C108.14 31.5732 108.265 31.5164 108.37 31.4477C108.475 31.379 108.556 31.2997 108.611 31.2143C108.665 31.129 108.69 31.0392 108.686 30.9501Z" fill="#9C1513"/>
<path id="Vector_9" d="M115.875 33.8086H116.938C117.004 33.8086 117.067 33.7819 117.114 33.7344C117.161 33.687 117.188 33.6226 117.188 33.5554V29.717C117.188 29.6581 117.209 29.6012 117.246 29.556C117.283 29.5109 117.335 29.4803 117.392 29.4696L118.171 29.3142C118.206 29.3075 118.243 29.3088 118.279 29.3181C118.314 29.3274 118.347 29.3445 118.375 29.3681C118.403 29.3917 118.426 29.4212 118.442 29.4547C118.458 29.4881 118.466 29.5246 118.466 29.5617V33.6532C118.466 33.7184 118.491 33.7812 118.535 33.8283C118.58 33.8755 118.64 33.9035 118.705 33.9064L119.909 33.9697C119.943 33.9713 119.977 33.9659 120.008 33.9539C120.04 33.9418 120.069 33.9234 120.093 33.8998C120.118 33.8761 120.137 33.8477 120.15 33.8162C120.164 33.7847 120.171 33.7508 120.171 33.7165L120.091 29.6422C120.09 29.6048 120.097 29.5676 120.111 29.5332C120.126 29.4988 120.148 29.4681 120.175 29.4434C120.203 29.4186 120.236 29.4004 120.271 29.39C120.307 29.3796 120.344 29.3773 120.381 29.3833L121.068 29.4926C121.126 29.5021 121.18 29.5322 121.218 29.5774C121.256 29.6227 121.278 29.6803 121.278 29.7401L121.364 34.6718C121.364 34.738 121.338 34.8015 121.292 34.8488C121.247 34.8962 121.185 34.9235 121.119 34.925L114.523 34.9768C114.489 34.9776 114.456 34.9716 114.425 34.9592C114.394 34.9468 114.366 34.9283 114.342 34.9047C114.319 34.8811 114.3 34.8529 114.287 34.8218C114.274 34.7907 114.267 34.7573 114.267 34.7236L114.188 29.7516C114.187 29.7178 114.193 29.6843 114.205 29.6529C114.217 29.6215 114.235 29.5929 114.259 29.5688C114.282 29.5447 114.31 29.5255 114.341 29.5124C114.371 29.4993 114.404 29.4926 114.438 29.4926H115.375C115.441 29.4926 115.505 29.5193 115.552 29.5668C115.599 29.6143 115.625 29.6787 115.625 29.7458V33.5554C115.625 33.6226 115.651 33.687 115.698 33.7344C115.745 33.7819 115.809 33.8086 115.875 33.8086Z" fill="#9C1513"/>
<path id="Vector_10" d="M124.278 31.5355C124.298 31.5848 124.333 31.6263 124.378 31.6538C124.423 31.6813 124.476 31.6934 124.528 31.6882C124.581 31.683 124.63 31.6609 124.669 31.6251C124.708 31.5893 124.734 31.5418 124.744 31.4895C124.9 30.5151 125.358 29.7996 126.119 29.343C126.221 29.28 126.341 29.2553 126.459 29.2732C126.577 29.2911 126.685 29.3506 126.764 29.4412C126.844 29.5319 126.89 29.6482 126.894 29.7699C126.899 29.8917 126.862 30.0114 126.79 30.1084L125.58 31.7485C125.519 31.8309 125.488 31.9321 125.493 32.0342C125.499 32.1363 125.539 32.2328 125.608 32.3067C126.127 32.8821 126.583 33.5458 126.977 34.2978C127.064 34.4628 127.08 34.6483 127.02 34.8136C126.96 34.9788 126.829 35.1102 126.658 35.1789C126.486 35.2476 126.287 35.2479 126.104 35.1798C125.921 35.1117 125.769 34.9807 125.682 34.8157L124.563 32.6865C124.539 32.6433 124.501 32.6093 124.456 32.5899C124.411 32.5705 124.361 32.5667 124.314 32.5792C124.266 32.5917 124.224 32.6197 124.194 32.6589C124.164 32.6981 124.148 32.7462 124.148 32.7958V34.6316C124.148 34.9001 124.017 35.0152 123.756 34.9768L123.08 34.8733C122.845 34.8387 122.727 34.7006 122.727 34.4589V29.953C122.727 29.8483 122.752 29.7451 122.8 29.6524C122.847 29.5596 122.917 29.48 123.002 29.4205C123.087 29.361 123.185 29.3234 123.288 29.3109C123.39 29.2984 123.494 29.3114 123.591 29.3488L124.068 29.5329C124.138 29.5587 124.196 29.6113 124.228 29.6799C124.261 29.7485 124.267 29.8278 124.244 29.9012C124.074 30.4498 124.085 30.9946 124.278 31.5355Z" fill="#9C1513"/>
<path id="Vector_11" d="M133.108 32.1686C133.108 32.9134 132.816 33.6277 132.296 34.1543C131.776 34.681 131.071 34.9768 130.335 34.9768C129.6 34.9768 128.895 34.681 128.375 34.1543C127.855 33.6277 127.562 32.9134 127.562 32.1686C127.562 31.4238 127.855 30.7095 128.375 30.1828C128.895 29.6562 129.6 29.3603 130.335 29.3603C131.071 29.3603 131.776 29.6562 132.296 30.1828C132.816 30.7095 133.108 31.4238 133.108 32.1686ZM130.372 33.9112C130.547 33.905 130.719 33.8544 130.878 33.7622C131.037 33.6701 131.18 33.5382 131.298 33.3742C131.416 33.2101 131.508 33.0171 131.568 32.8061C131.628 32.5951 131.655 32.3702 131.647 32.1444C131.639 31.9186 131.597 31.6962 131.523 31.4899C131.448 31.2837 131.344 31.0976 131.214 30.9423C131.085 30.787 130.933 30.6655 130.768 30.5848C130.604 30.5041 130.428 30.4658 130.253 30.472C130.078 30.4782 129.906 30.5288 129.747 30.6209C129.588 30.7131 129.445 30.8449 129.327 31.009C129.209 31.173 129.117 31.3661 129.057 31.5771C128.997 31.7881 128.97 32.0129 128.978 32.2388C128.986 32.4646 129.028 32.687 129.102 32.8932C129.177 33.0995 129.281 33.2856 129.411 33.4409C129.54 33.5962 129.692 33.7177 129.857 33.7984C130.021 33.879 130.197 33.9174 130.372 33.9112Z" fill="#9C1513"/>
<path id="Vector_12" d="M137.324 30.3328L135.983 30.5227C135.771 30.5496 135.665 30.6723 135.665 30.891L135.631 34.1079C135.631 34.2157 135.601 34.3214 135.546 34.4137C135.491 34.506 135.412 34.5813 135.318 34.6315C134.758 34.9384 134.176 35.0056 133.574 34.8329C133.493 34.8099 133.42 34.7626 133.366 34.6971C133.311 34.6317 133.278 34.5512 133.269 34.4662C133.26 34.3811 133.277 34.2954 133.318 34.2202C133.358 34.145 133.419 34.0838 133.494 34.0446L133.966 33.7913C134.144 33.6993 134.233 33.5535 134.233 33.354V29.8206C134.233 29.5636 134.362 29.4312 134.619 29.4236L138.602 29.32C138.66 29.3184 138.717 29.3285 138.771 29.3495C138.825 29.3705 138.874 29.402 138.915 29.4423C138.956 29.4825 138.989 29.5306 139.012 29.5837C139.034 29.6368 139.045 29.6939 139.045 29.7516L139.097 34.4762C139.097 34.7485 138.962 34.8905 138.693 34.902L138.045 34.9308C137.777 34.9461 137.642 34.8157 137.642 34.5395V30.6148C137.642 30.3961 137.536 30.3021 137.324 30.3328Z" fill="#9C1513"/>
<path id="Vector_13" d="M144.011 29.6077C144.196 29.6776 144.356 29.8007 144.473 29.962C144.59 30.1234 144.658 30.3161 144.671 30.517L144.926 34.7294C144.938 34.9442 144.839 35.0248 144.631 34.9711C143.085 34.551 140.085 35.6214 140.102 33.1123C140.104 32.8998 140.171 32.693 140.293 32.5201C140.415 32.3471 140.586 32.2164 140.784 32.1455L143.074 31.3284C143.151 31.3021 143.218 31.2501 143.263 31.1808C143.307 31.1116 143.328 31.0291 143.321 30.9466C143.313 30.8642 143.279 30.7866 143.223 30.7264C143.167 30.6662 143.092 30.6269 143.011 30.6148C142.273 30.492 141.555 30.6205 140.858 31.0004C140.823 31.0192 140.783 31.0291 140.743 31.0292C140.703 31.0294 140.663 31.0197 140.628 31.0011C140.592 30.9825 140.561 30.9554 140.538 30.9222C140.515 30.8891 140.5 30.8507 140.494 30.8105C140.284 29.2107 143.102 29.2567 144.011 29.6077ZM143.402 32.8906C143.352 32.7321 143.204 32.6124 142.989 32.5581C142.774 32.5037 142.51 32.519 142.256 32.6007C142.13 32.6412 142.01 32.6967 141.903 32.7641C141.797 32.8315 141.705 32.9095 141.633 32.9936C141.561 33.0778 141.511 33.1664 141.486 33.2544C141.461 33.3424 141.46 33.4281 141.485 33.5066C141.534 33.6652 141.683 33.7848 141.898 33.8392C142.113 33.8936 142.376 33.8782 142.631 33.7965C142.756 33.7561 142.876 33.7006 142.983 33.6332C143.09 33.5657 143.182 33.4878 143.254 33.4036C143.325 33.3195 143.375 33.2309 143.401 33.1429C143.426 33.0549 143.426 32.9692 143.402 32.8906Z" fill="#9C1513"/>
<path id="Vector_14" d="M84.0908 33.6648C84.8711 34.1098 85.5056 33.9506 85.9942 33.1872C86.0388 33.1186 86.0975 33.0606 86.1663 33.0172C86.2351 32.9738 86.3123 32.9459 86.3927 32.9356C86.4731 32.9252 86.5548 32.9325 86.6321 32.9571C86.7095 32.9816 86.7807 33.0228 86.8408 33.0778C88.2215 34.3381 83.3124 36.427 82.3976 33.003C81.5567 29.8552 85.0226 28.1633 87.0567 30.5515C87.0892 30.5891 87.1119 30.6344 87.1227 30.6832C87.1335 30.732 87.1321 30.7827 87.1185 30.8308C87.1049 30.8789 87.0797 30.9228 87.0451 30.9584C87.0105 30.9941 86.9676 31.0204 86.9204 31.0349L86.2897 31.2363C86.1985 31.2652 86.1005 31.2646 86.009 31.2348C85.9176 31.2049 85.837 31.1472 85.7783 31.0694C85.2783 30.4057 84.7158 30.2791 84.0908 30.6896C83.9014 30.8162 83.8067 30.9927 83.8067 31.2191V33.1756C83.8067 33.3943 83.9014 33.5574 84.0908 33.6648Z" fill="#9C1513"/>
<path id="Vector_15" d="M21.1421 30.845C24.9716 30.423 28.5644 31.0061 31.9205 32.5944L34.8977 34.4014C37.572 36.8068 39.6155 39.6803 41.0284 43.0218C41.0417 43.0517 41.0474 43.0844 41.045 43.117C41.0426 43.1496 41.0322 43.1811 41.0147 43.2086C40.9971 43.236 40.9731 43.2586 40.9447 43.2743C40.9164 43.2899 40.8846 43.2981 40.8523 43.2981L36.7898 43.3038C36.691 43.3036 36.5937 43.2801 36.5059 43.2351C36.4181 43.1902 36.3421 43.125 36.2841 43.0449L33.0568 38.5102L30.0795 36.2256C26.2462 34.4762 22.233 34.1789 18.0398 35.3336L12.108 37.4341C7.89963 39.3178 4.04546 41.5026 0.545463 43.9886C0.480612 44.031 0.402968 44.0485 0.326512 44.038C0.250056 44.0275 0.179811 43.9897 0.128424 43.9314C0.0770377 43.8731 0.0478861 43.7981 0.0462183 43.72C0.0445505 43.6419 0.0704761 43.5657 0.119327 43.5052C4.61554 38.3606 9.67614 34.6181 15.3011 32.2779L21.1421 30.845Z" fill="#E30B0A"/>
<path id="Vector_16" d="M18.0397 35.3336C14.7367 40.7238 12.0625 46.373 10.017 52.2811C9.96397 52.4307 9.85791 52.5055 9.69882 52.5055L5.68745 52.5113C5.37306 52.5151 5.27268 52.3693 5.38632 52.0739C7.29162 47.171 9.53215 42.291 12.1079 37.4341L18.0397 35.3336Z" fill="#0B0A08"/>
<path id="Vector_17" d="M30.0796 36.2256L33.0568 38.5102C31.0985 43.0027 29.7576 47.5834 29.0341 52.2523C29.0233 52.324 28.9876 52.3895 28.9335 52.4369C28.8793 52.4844 28.8103 52.5107 28.7387 52.5113H25.0909C24.8902 52.5113 24.8106 52.4115 24.8523 52.212C25.9887 46.7643 27.7311 41.4355 30.0796 36.2256Z" fill="#0B0A08"/>
<path id="Vector_18" d="M89.5342 50.4626L97.6024 50.5144C97.7728 50.5144 97.9092 50.5815 98.0115 50.7158C98.3372 51.1455 98.3524 51.5598 98.0569 51.9588C97.9357 52.1238 97.7728 52.2082 97.5683 52.212C95.1478 52.2408 89.1876 52.822 87.3126 51.4524C85.0115 49.7836 85.716 41.2839 85.9887 39.4597C86.5967 35.3854 94.5342 36.6687 97.5285 36.6975C97.7255 36.6975 97.8884 36.7723 98.0172 36.9219C98.4414 37.3976 98.4054 37.8637 97.9092 38.3203C97.7849 38.4384 97.6204 38.5042 97.449 38.5044L89.4717 38.5792C88.9849 38.5838 88.5196 38.7828 88.177 39.1331C87.8343 39.4833 87.6421 39.9565 87.6422 40.4495V48.5348C87.6422 49.0441 87.8411 49.5327 88.1956 49.8939C88.5501 50.2551 89.0314 50.4596 89.5342 50.4626Z" fill="#0B0A08"/>
<path id="Vector_19" d="M142.739 42.1184L142.761 51.7747C142.765 52.0279 142.642 52.1641 142.392 52.1833L141.659 52.2408C141.364 52.2639 141.216 52.1257 141.216 51.8265L141.227 42.1011C141.227 41.9438 141.152 41.8652 141 41.8652L137.642 41.8594C137.587 41.8595 137.533 41.8482 137.482 41.8263C137.432 41.8043 137.386 41.7721 137.348 41.7317C137.311 41.6913 137.281 41.6435 137.263 41.5913C137.244 41.539 137.236 41.4834 137.239 41.4278L137.278 40.5474C137.29 40.3018 137.417 40.1695 137.659 40.1503C140.424 39.9661 143.189 39.9278 145.955 40.0352C146.077 40.0407 146.196 40.0762 146.3 40.1385C146.404 40.2008 146.49 40.2879 146.551 40.392C147.784 42.4522 143.818 41.8594 142.983 41.8709C142.82 41.8709 142.739 41.9534 142.739 42.1184Z" fill="#0B0A08"/>
<path id="Vector_20" d="M45.7614 40.1733C48.75 40.6567 49.4375 43.3384 47.9262 45.7841C47.8352 45.9299 47.839 46.0718 47.9375 46.2099C49.3807 48.3161 49.0171 51.9819 45.7727 52.1257C42.75 52.26 39.7235 52.2773 36.6932 52.1775C36.6052 52.1746 36.5216 52.138 36.4593 52.0749C36.397 52.0118 36.3608 51.9271 36.358 51.838L36.3296 50.8482C36.322 50.5451 36.4678 50.3936 36.7671 50.3936L46.4887 50.336C46.6667 50.336 46.7936 50.2535 46.8693 50.0886C47.2936 49.1793 47.2803 48.2682 46.8296 47.3551C46.7853 47.2652 46.7177 47.1895 46.6344 47.1366C46.551 47.0838 46.4553 47.0558 46.358 47.0559L37.2387 47.0213C36.9903 47.0215 36.7509 46.927 36.5682 46.7566C35.8125 46.0546 36.4546 45.1626 37.3693 45.1281C40.411 45.0168 43.4508 44.99 46.4887 45.0475C46.7159 45.0552 46.8712 44.9497 46.9546 44.731C47.2424 43.9522 47.2235 43.1676 46.8978 42.3773C46.8571 42.2812 46.7899 42.1991 46.7042 42.1409C46.6185 42.0827 46.518 42.0509 46.4148 42.0493L42.9887 41.986C42.8751 41.9842 42.7631 41.9586 42.6599 41.9108C42.5567 41.8631 42.4645 41.7943 42.3891 41.7087C42.3138 41.6232 42.2569 41.5228 42.2222 41.414C42.1875 41.3052 42.1757 41.1904 42.1875 41.0768L42.233 40.6509C42.2411 40.555 42.2799 40.4643 42.3435 40.3926C42.407 40.321 42.4919 40.2723 42.5852 40.2539C43.6648 40.0352 44.7235 40.0083 45.7614 40.1733Z" fill="#0B0A08"/>
<path id="Vector_21" d="M51.8863 49.375C51.8901 49.6474 51.9848 49.6858 52.1704 49.4901L61.034 40.2078C61.1387 40.0996 61.2728 40.0253 61.4192 39.9943C61.5656 39.9633 61.7179 39.977 61.8566 40.0337C61.9953 40.0904 62.1143 40.1875 62.1985 40.3128C62.2827 40.438 62.3283 40.5858 62.3295 40.7373V51.8898C62.3295 52.1545 62.1988 52.2677 61.9374 52.2293L61.2158 52.12C61.0302 52.0931 60.9374 51.9838 60.9374 51.792V42.8895C60.9374 42.4982 60.803 42.4445 60.534 42.7284L51.6704 52.0739C51.5816 52.1664 51.4676 52.23 51.343 52.2567C51.2184 52.2834 51.0888 52.272 50.9706 52.2239C50.8525 52.1758 50.7511 52.0931 50.6794 51.9865C50.6078 51.8799 50.569 51.7541 50.5681 51.6251V40.5186C50.5681 40.3191 50.6666 40.2098 50.8636 40.1906L51.4602 40.1273C51.7139 40.1043 51.8408 40.2193 51.8408 40.4726L51.8863 49.375Z" fill="#0B0A08"/>
<path id="Vector_22" d="M104.761 42.1586C104.875 45.0648 104.563 48.2298 104.875 51.0726C104.962 51.8821 104.652 52.3137 103.943 52.3674C103.854 52.3737 103.765 52.3615 103.681 52.3313C103.597 52.3012 103.521 52.2539 103.455 52.1923C103.39 52.1308 103.339 52.0563 103.303 51.9735C103.268 51.8908 103.25 51.8016 103.25 51.7114C103.258 48.5348 103.273 45.3659 103.295 42.2047C103.295 41.986 103.189 41.8767 102.977 41.8767L99.8239 41.8421C99.3845 41.8383 99.1667 41.6139 99.1705 41.1688C99.1818 40.5646 99.3807 40.1963 100.034 40.1733C102.818 40.0889 105.598 40.0889 108.375 40.1733C108.527 40.181 108.629 40.2577 108.682 40.4035C109.455 42.5442 106.165 41.8536 105.023 41.8767C104.841 41.8767 104.754 41.9707 104.761 42.1586Z" fill="#0B0A08"/>
<path id="Vector_23" d="M121.011 43.2348C120.472 41.5199 118.312 42.1817 117.034 41.8364C116.832 41.7824 116.656 41.6554 116.54 41.4793C116.423 41.3032 116.375 41.0902 116.403 40.8802C116.43 40.6702 116.533 40.4779 116.691 40.3392C116.849 40.2005 117.052 40.1252 117.261 40.1273C118.983 40.1445 120.852 39.8856 121.926 41.5544C122.881 43.0334 122.449 47.5623 122.437 49.3175C122.432 50.0739 122.136 50.7985 121.612 51.3377C121.088 51.8769 120.377 52.1884 119.631 52.2063C115.693 52.2984 109.17 53.5011 109.994 46.9696C110.602 42.1817 117.506 43.5973 120.761 43.5858C120.803 43.5851 120.845 43.5744 120.882 43.5548C120.919 43.5352 120.952 43.5071 120.976 43.4729C121 43.4386 121.016 43.3992 121.022 43.3578C121.029 43.3165 121.025 43.2743 121.011 43.2348ZM121.04 46.8697C121.039 46.6936 121.004 46.5195 120.937 46.3571C120.869 46.1948 120.771 46.0475 120.647 45.9237C120.524 45.7998 120.377 45.7018 120.216 45.6353C120.055 45.5688 119.883 45.535 119.709 45.5359L112.914 45.572C112.563 45.5738 112.227 45.7169 111.98 45.9696C111.733 46.2224 111.595 46.5642 111.597 46.9198L111.608 48.9915C111.609 49.1675 111.644 49.3417 111.711 49.5041C111.778 49.6664 111.877 49.8137 112 49.9375C112.124 50.0614 112.27 50.1594 112.431 50.2259C112.592 50.2924 112.765 50.3262 112.938 50.3253L119.734 50.2892C120.085 50.2873 120.421 50.1443 120.668 49.8915C120.915 49.6388 121.052 49.297 121.051 48.9414L121.04 46.8697Z" fill="#0B0A08"/>
<path id="Vector_24" d="M126.864 40.1848C129.352 40.11 134.352 39.2813 135.75 41.9687C136.392 43.1887 136.278 49.3289 135.608 50.5835C134.364 52.9256 128.335 52.2581 125.994 52.2983C125.964 52.2991 125.934 52.3059 125.906 52.3182C125.879 52.3306 125.854 52.3483 125.833 52.3702C125.813 52.3922 125.797 52.4181 125.786 52.4463C125.776 52.4744 125.771 52.5044 125.773 52.5343L125.886 54.9397C125.902 55.2351 125.763 55.3771 125.472 55.3656L124.568 55.331C124.326 55.3234 124.207 55.1968 124.21 54.9512L124.324 42.8031C124.33 42.1203 124.597 41.4662 125.071 40.978C125.544 40.4899 126.187 40.2056 126.864 40.1848ZM125.79 42.8319L125.847 49.657C125.848 49.7741 125.872 49.8898 125.918 49.9974C125.964 50.1051 126.03 50.2026 126.113 50.2843C126.195 50.3661 126.293 50.4305 126.401 50.4739C126.508 50.5174 126.623 50.5389 126.739 50.5374L132.301 50.4914C132.904 50.4849 133.479 50.2582 133.901 49.8611C134.323 49.464 134.557 48.929 134.551 48.3737L134.517 43.9541C134.514 43.6789 134.453 43.407 134.336 43.1539C134.219 42.9008 134.049 42.6715 133.836 42.4791C133.623 42.2867 133.37 42.135 133.093 42.0326C132.816 41.9302 132.52 41.8792 132.222 41.8824L126.659 41.9284C126.543 41.9299 126.429 41.9545 126.323 42.0007C126.217 42.0469 126.12 42.1139 126.04 42.1978C125.959 42.2817 125.895 42.3809 125.853 42.4897C125.81 42.5985 125.788 42.7148 125.79 42.8319Z" fill="#0B0A08"/>
<path id="Vector_25" d="M68.7159 47.758C66.4659 47.85 64.6079 47.5335 64.4659 44.8058C64.3465 42.5903 64.5852 40.5416 67.3636 40.369C69.7462 40.227 71.9905 40.2328 74.0965 40.3862C74.6894 40.4299 75.244 40.6992 75.6488 41.1401C76.0536 41.5811 76.2785 42.1609 76.2784 42.7629V51.6366C76.2784 51.7786 76.2234 51.8956 76.1136 51.9876C75.7272 52.3099 75.3314 52.3233 74.9261 52.0279C74.7859 51.9282 74.7159 51.7901 74.7159 51.6136V48.2068C74.7159 48.0303 74.6325 47.9229 74.4659 47.8846C71.4204 47.1882 67.9943 50.4857 65.5965 52.143C65.4583 52.2384 65.2911 52.2814 65.124 52.2646C64.9569 52.2478 64.8005 52.1722 64.6818 52.0509C63.6363 50.9921 68.0454 48.5694 68.8011 47.9939C69.0208 47.8251 68.9924 47.7465 68.7159 47.758ZM74.825 43.343C74.8281 42.9721 74.6858 42.6152 74.4291 42.3506C74.1724 42.0861 73.8225 41.9357 73.4564 41.9325L67.3657 41.8787C66.9995 41.8754 66.6471 42.0196 66.3859 42.2796C66.1247 42.5395 65.9762 42.8939 65.973 43.2648L65.959 44.8875C65.9559 45.2584 66.0982 45.6153 66.3549 45.8799C66.6116 46.1444 66.9615 46.2948 67.3276 46.2981L73.4183 46.3519C73.7845 46.3551 74.1369 46.2109 74.3981 45.9509C74.6593 45.691 74.8078 45.3366 74.811 44.9657L74.825 43.343Z" fill="#0B0A08"/>
<path id="Vector_26" d="M83.5797 44.6044H78.6251C78.0446 44.6044 77.574 45.081 77.574 45.669V45.8301C77.574 46.4181 78.0446 46.8947 78.6251 46.8947H83.5797C84.1602 46.8947 84.6308 46.4181 84.6308 45.8301V45.669C84.6308 45.081 84.1602 44.6044 83.5797 44.6044Z" fill="#0B0A08"/>
</g>
</svg>
