<svg width="200" height="200" viewBox="0 0 200 200" fill="none" xmlns="http://www.w3.org/2000/svg">
<g opacity="0.1">
<path d="M148.417 45.75V51.9167L118.917 34.8334C107.75 28.4167 92.1667 28.4167 81.0834 34.8334L51.5834 52V45.75C51.5834 27 61.8334 16.6667 80.5834 16.6667H119.417C138.167 16.6667 148.417 27 148.417 45.75Z" fill="#58CF7A"/>
<path d="M148.667 66.4167L147.5 65.8333L136.167 59.3333L112.667 45.75C105.5 41.5833 94.5 41.5833 87.3333 45.75L63.8333 59.25L52.5 65.9167L51 66.6667C36.4166 76.5 35.4166 78.3333 35.4166 94.0833V131.75C35.4166 147.5 36.4166 149.333 51.3333 159.417L87.3333 180.167C90.9166 182.333 95.4166 183.25 100 183.25C104.5 183.25 109.083 182.25 112.667 180.167L149 159.167C163.667 149.333 164.583 147.583 164.583 131.75V94.0833C164.583 78.3333 163.583 76.5 148.667 66.4167ZM123.25 112.5L118.167 118.75C117.333 119.667 116.75 121.417 116.833 122.667L117.333 130.667C117.667 135.583 114.167 138.083 109.583 136.333L102.167 133.333C101 132.917 99.0833 132.917 97.9166 133.333L90.5 136.25C85.9166 138.083 82.4166 135.5 82.75 130.583L83.25 122.583C83.3333 121.333 82.75 119.583 81.9166 118.667L76.75 112.5C73.5833 108.75 75 104.583 79.75 103.333L87.5 101.333C88.75 101 90.1666 99.8333 90.8333 98.8333L95.1666 92.1667C97.8333 88 102.083 88 104.833 92.1667L109.167 98.8333C109.833 99.9167 111.333 101 112.5 101.333L120.25 103.333C125 104.583 126.417 108.75 123.25 112.5Z" fill="#58CF7A"/>
</g>
</svg>
