<svg width="200" height="200" viewBox="0 0 200 200" fill="none" xmlns="http://www.w3.org/2000/svg">
<g opacity="0.1">
<path d="M100 16.6667C78.1666 16.6667 60.4166 34.4167 60.4166 56.25C60.4166 77.6667 77.1666 95 99 95.75C99.6666 95.6667 100.333 95.6667 100.833 95.75C101 95.75 101.083 95.75 101.25 95.75C101.333 95.75 101.333 95.75 101.417 95.75C122.75 95 139.5 77.6667 139.583 56.25C139.583 34.4167 121.833 16.6667 100 16.6667Z" fill="#B66AD0"/>
<path d="M142.333 118C119.083 102.5 81.1667 102.5 57.75 118C47.1667 125 41.3334 134.583 41.3334 144.833C41.3334 155.083 47.1667 164.583 57.6667 171.583C69.3334 179.417 84.6667 183.333 100 183.333C115.333 183.333 130.667 179.417 142.333 171.583C152.833 164.5 158.667 155 158.667 144.667C158.583 134.5 152.833 124.917 142.333 118ZM119.417 138L98.4167 159C97.4167 160 96.0834 160.5 94.75 160.5C93.4167 160.5 92.0834 159.917 91.0834 159L80.5834 148.5C78.5834 146.5 78.5834 143.167 80.5834 141.167C82.5834 139.167 85.9167 139.167 87.9167 141.167L94.75 148L112.083 130.667C114.083 128.667 117.417 128.667 119.417 130.667C121.5 132.667 121.5 136 119.417 138Z" fill="#B66AD0"/>
</g>
</svg>
