<svg width="200" height="200" viewBox="0 0 200 200" fill="none" xmlns="http://www.w3.org/2000/svg">
<g opacity="0.1">
<path d="M92.75 132.333C90.6667 132.333 88.5834 131.25 87.4167 129.333C85.6667 126.417 86.5834 122.5 89.5834 120.75L97 116.333V107.333C97 103.917 99.8334 101.083 103.25 101.083C106.667 101.083 109.5 103.917 109.5 107.333V119.833C109.5 122 108.333 124.083 106.5 125.167L96.0834 131.417C94.9167 132 93.8334 132.333 92.75 132.333Z" fill="#DDB449"/>
<path d="M175.75 58.1667C168.667 50.3333 156.917 46.4167 139.667 46.4167H137.667V46.0833C137.667 32.0833 137.667 14.75 106.333 14.75H93.6667C62.3334 14.75 62.3334 32.0833 62.3334 46.0833V46.4167H60.3334C43.0834 46.4167 31.25 50.3333 24.25 58.1667C16 67.4167 16.25 79.6667 17.0834 88.0833L17.1667 88.6667L17.8958 97.1726C17.909 97.3266 17.9924 97.4657 18.1221 97.5497C20.9026 99.3502 23.989 101.374 26.9167 103C28.0834 103.75 29.3334 104.417 30.5834 105.083C40 110.25 50.0834 114.333 60.4167 117.167C60.6667 138.75 78.3334 156.25 100 156.25C121.833 156.25 139.583 138.5 139.583 116.667V116.333C150.083 113.167 160.167 108.75 169.583 103.25C170.083 103 170.417 102.75 170.833 102.5C174.601 100.453 178.529 97.6807 181.985 95.2128C182.101 95.1303 182.176 95.0027 182.191 94.8614L182.5 92.0833L182.917 88.1667C183 87.6667 183 87.25 183.083 86.6667C183.75 78.3333 183.583 66.8333 175.75 58.1667ZM74.25 46.0833C74.25 31.9167 74.25 26.5833 93.6667 26.5833H106.333C125.75 26.5833 125.75 31.9167 125.75 46.0833V46.4167H74.25V46.0833ZM100 143.75C86.25 143.75 74.8334 133.417 73.1667 120.083C73 119 72.9167 117.833 72.9167 116.667C72.9167 101.75 85.0834 89.5833 100 89.5833C114.917 89.5833 127.083 101.75 127.083 116.667C127.083 117.667 127 118.583 126.917 119.5V119.583C125.417 133.167 113.917 143.75 100 143.75Z" fill="#DDB449"/>
<path d="M179.522 111.957C179.883 111.742 180.36 112.04 180.321 112.459L176.917 149.667C175.167 166.333 168.333 183.333 131.667 183.333H68.1667C31.5 183.333 24.6667 166.333 23 149.75L19.6737 114.134C19.6359 113.729 20.0707 113.449 20.4228 113.653C21.5706 114.315 23.5995 115.479 24.5834 116C31.0834 119.583 37.8334 122.75 44.75 125.25C47.3334 126.167 49.1667 128.333 49.9167 131C56.1667 152.667 76.3334 168.75 100 168.75C124.083 168.75 144.417 152.333 150.333 129.833C151 127.167 152.833 125 155.417 124C162.417 121.25 169.083 118 175.333 114.417C175.882 114.112 178.211 112.739 179.522 111.957Z" fill="#DDB449"/>
</g>
</svg>
