<svg width="200" height="200" viewBox="0 0 200 200" fill="none" xmlns="http://www.w3.org/2000/svg">
<g opacity="0.1">
<path d="M140.25 130.333C145.833 126.667 153.167 130.667 153.167 137.333V148.083C153.167 158.667 144.917 170 135 173.333L108.417 182.167C103.75 183.75 96.1667 183.75 91.5834 182.167L65 173.333C55 170 46.8334 158.667 46.8334 148.083V137.25C46.8334 130.667 54.1667 126.667 59.6667 130.25L76.8334 141.417C83.4167 145.833 91.75 148 100.083 148C108.417 148 116.75 145.833 123.333 141.417L140.25 130.333Z" fill="#19CAF0"/>
<path d="M166.5 53.8334L116.583 21.0834C107.583 15.1667 92.75 15.1667 83.75 21.0834L33.5834 53.8334C17.5 64.25 17.5 87.8334 33.5834 98.3334L46.9167 107L83.75 131C92.75 136.917 107.583 136.917 116.583 131L153.167 107L164.583 99.5V125C164.583 128.417 167.417 131.25 170.833 131.25C174.25 131.25 177.083 128.417 177.083 125V84C180.417 73.25 177 60.75 166.5 53.8334Z" fill="#19CAF0"/>
</g>
</svg>
