<svg width="166" height="166" viewBox="0 0 166 166" fill="none" xmlns="http://www.w3.org/2000/svg">
<g opacity="0.2">
<path d="M142.622 58.4462C135.359 26.4912 107.485 12.1045 82.9999 12.1045C82.9999 12.1045 82.9999 12.1045 82.9308 12.1045C58.5149 12.1045 30.5716 26.422 23.3091 58.377C15.2166 94.067 37.0733 124.293 56.8549 143.314C64.1866 150.369 73.5933 153.896 82.9999 153.896C92.4066 153.896 101.813 150.369 109.076 143.314C128.857 124.293 150.714 94.1361 142.622 58.4462ZM82.9999 93.0986C70.9649 93.0986 61.2124 83.3462 61.2124 71.3112C61.2124 59.2762 70.9649 49.5237 82.9999 49.5237C95.0349 49.5237 104.787 59.2762 104.787 71.3112C104.787 83.3462 95.0349 93.0986 82.9999 93.0986Z" fill="white"/>
</g>
</svg>
