<svg width="92" height="92" viewBox="0 0 92 92" fill="none" xmlns="http://www.w3.org/2000/svg">
<path d="M81.4583 70.8022L75.1333 72.2973C73.7149 72.6423 72.6033 73.7156 72.2966 75.1339L70.9549 80.7689C70.2266 83.8356 66.3166 84.7939 64.2849 82.3789L52.8233 69.1922C51.9033 68.1189 52.4016 66.4323 53.7816 66.0873C60.5666 64.4389 66.6616 60.6439 71.1466 55.2389C71.8749 54.3573 73.1783 54.2423 73.9833 55.0473L82.4933 63.5573C85.4066 66.4706 84.3716 70.1122 81.4583 70.8022Z" fill="#DDB449"/>
<path d="M10.3499 70.8022L16.6749 72.2973C18.0932 72.6423 19.2049 73.7156 19.5116 75.1339L20.8532 80.7689C21.5816 83.8356 25.4916 84.7939 27.5232 82.3789L38.9849 69.1922C39.9049 68.1189 39.4066 66.4323 38.0266 66.0873C31.2416 64.4389 25.1466 60.6439 20.6616 55.2389C19.9332 54.3573 18.6299 54.2423 17.8249 55.0473L9.31489 63.5573C6.40156 66.4706 7.43656 70.1122 10.3499 70.8022Z" fill="#DDB449"/>
<path d="M46.0001 7.66699C31.1651 7.66699 19.1667 19.6653 19.1667 34.5003C19.1667 40.0587 20.8151 45.157 23.6517 49.412C27.7917 55.5453 34.3467 59.877 41.9751 60.9887C43.2784 61.2187 44.6201 61.3337 46.0001 61.3337C47.3801 61.3337 48.7217 61.2187 50.0251 60.9887C57.6534 59.877 64.2084 55.5453 68.3484 49.412C71.1851 45.157 72.8334 40.0587 72.8334 34.5003C72.8334 19.6653 60.8351 7.66699 46.0001 7.66699ZM57.7301 33.657L54.5484 36.8387C54.0117 37.3753 53.7051 38.4103 53.8967 39.177L54.8167 43.1253C55.5451 46.2303 53.8967 47.457 51.1367 45.8087L47.3034 43.547C46.6134 43.1253 45.4634 43.1253 44.7734 43.547L40.9401 45.8087C38.1801 47.4187 36.5317 46.2303 37.2601 43.1253L38.1801 39.177C38.3334 38.4487 38.0651 37.3753 37.5284 36.8387L34.2701 33.657C32.3917 31.7787 33.0051 29.9003 35.6117 29.4787L39.7134 28.7887C40.4034 28.6737 41.2084 28.0603 41.5151 27.447L43.7767 22.9237C45.0034 20.4703 46.9967 20.4703 48.2234 22.9237L50.4851 27.447C50.7917 28.0603 51.5967 28.6737 52.3251 28.7887L56.4268 29.4787C58.9951 29.9003 59.6084 31.7787 57.7301 33.657Z" fill="#DDB449"/>
</svg>
