<svg width="32" height="32" viewBox="0 0 32 32" fill="none" xmlns="http://www.w3.org/2000/svg">
<rect width="32" height="32" fill="#D7D7D7"/>
<g id="Desktop" clip-path="url(#clip0_0_1)">
<rect width="1600" height="9361" transform="translate(-650 -4043)" fill="#F3F5F8"/>
<g id="Group 23">
<g id="Group 46444">
<g id="Component 6">
<g id="Frame 18" clip-path="url(#clip1_0_1)">
<rect id="Rectangle 10" x="-40" y="-348" width="380" height="420" rx="30" fill="#0B0A08"/>
<g id="Group 22" opacity="0.1">
<path id="Vector" d="M11.1386 -41.0155C32.0397 -43.3133 51.6487 -40.1381 69.9657 -31.4901L86.2152 -21.6514C100.811 -8.5541 111.964 7.09171 119.676 25.286C119.748 25.4483 119.779 25.6263 119.766 25.8039C119.753 25.9815 119.696 26.153 119.6 26.3026C119.505 26.4522 119.374 26.5752 119.219 26.6603C119.064 26.7455 118.891 26.79 118.714 26.7899L96.5417 26.8213C96.0025 26.8203 95.4718 26.6922 94.9924 26.4473C94.513 26.2024 94.0983 25.8475 93.7818 25.4113L76.1678 0.720581L59.9182 -11.7188C38.9964 -21.2441 17.0926 -22.863 -5.7932 -16.5754L-38.1683 -5.13874C-61.1368 5.11771 -82.1723 17.0139 -101.275 30.55C-101.629 30.7805 -102.052 30.8757 -102.47 30.8186C-102.887 30.7615 -103.27 30.5556 -103.551 30.2383C-103.831 29.9209 -103.99 29.5128 -104 29.0874C-104.009 28.662 -103.867 28.2473 -103.601 27.918C-79.0609 -0.0940857 -51.4408 -20.4712 -20.7403 -33.2135L11.1386 -41.0155Z" fill="white"/>
<path id="Vector_2" d="M59.9182 -11.7195L76.1677 0.719856C65.4794 25.1808 58.1609 50.1221 54.2122 75.544C54.1533 75.9343 53.9585 76.2907 53.663 76.5491C53.3675 76.8075 52.9905 76.951 52.5997 76.9539H32.6909C31.5952 76.9539 31.1611 76.4108 31.3885 75.3246C37.5906 45.6624 47.1005 16.6477 59.9182 -11.7195Z" fill="white"/>
</g>
<g id="vuesax/bold/add-circle">
<g id="vuesax/bold/add-circle_2">
<g id="add-circle">
<path id="Vector_3" d="M16.0001 2.66675C8.65341 2.66675 2.66675 8.65341 2.66675 16.0001C2.66675 23.3467 8.65341 29.3334 16.0001 29.3334C23.3467 29.3334 29.3334 23.3467 29.3334 16.0001C29.3334 8.65341 23.3467 2.66675 16.0001 2.66675ZM21.3334 17.0001H17.0001V21.3334C17.0001 21.8801 16.5467 22.3334 16.0001 22.3334C15.4534 22.3334 15.0001 21.8801 15.0001 21.3334V17.0001H10.6667C10.1201 17.0001 9.66675 16.5467 9.66675 16.0001C9.66675 15.4534 10.1201 15.0001 10.6667 15.0001H15.0001V10.6667C15.0001 10.1201 15.4534 9.66675 16.0001 9.66675C16.5467 9.66675 17.0001 10.1201 17.0001 10.6667V15.0001H21.3334C21.8801 15.0001 22.3334 15.4534 22.3334 16.0001C22.3334 16.5467 21.8801 17.0001 21.3334 17.0001Z" fill="white"/>
</g>
</g>
</g>
</g>
</g>
</g>
</g>
</g>
<defs>
<clipPath id="clip0_0_1">
<rect width="1600" height="9361" fill="white" transform="translate(-650 -4043)"/>
</clipPath>
<clipPath id="clip1_0_1">
<rect width="380" height="419" fill="white" transform="translate(-40 -348)"/>
</clipPath>
</defs>
</svg>
