<svg width="64" height="64" viewBox="0 0 64 64" fill="none" xmlns="http://www.w3.org/2000/svg">
<path d="M5.33325 32.0003C5.33325 46.7203 17.2799 58.667 31.9999 58.667C46.7199 58.667 58.6666 46.7203 58.6666 32.0003C58.6666 17.2803 46.7199 5.33366 31.9999 5.33366C17.2799 5.33366 5.33325 17.2803 5.33325 32.0003ZM33.4132 21.2537L41.4132 29.2537C41.8132 29.6537 41.9999 30.1603 41.9999 30.667C41.9999 31.1737 41.8132 31.6803 41.4132 32.0803C40.6399 32.8537 39.3599 32.8537 38.5866 32.0803L33.9999 27.4937V41.3337C33.9999 42.427 33.0933 43.3337 31.9999 43.3337C30.9066 43.3337 29.9999 42.427 29.9999 41.3337V27.4937L25.4132 32.0803C24.6399 32.8537 23.3599 32.8537 22.5866 32.0803C21.8133 31.307 21.8133 30.027 22.5866 29.2537L30.5866 21.2537C31.3599 20.4803 32.6399 20.4803 33.4132 21.2537Z" fill="#0B0A08"/>
</svg>
